<svg width="73" height="23" viewBox="0 0 73 23" fill="none" xmlns="http://www.w3.org/2000/svg">
<path d="M22.9675 9.89601C21.9952 3.38137 15.9851 -0.951531 9.49109 0.179377C2.89796 1.32558 -1.36289 8.01656 0.398948 14.4574C1.89853 19.9455 6.97225 23.4678 12.6552 22.9496C13.3851 22.8821 14.1052 22.7022 14.8307 22.5753C14.1205 22.0553 14.1187 22.0445 13.3635 22.1696C12.263 22.36 11.1393 22.3768 10.0336 22.219C3.87485 21.3131 -0.203049 15.6414 0.887395 9.51184C1.92377 3.68816 7.73196 -0.315452 13.5347 0.871237C17.7758 1.73854 20.674 4.27206 21.9041 8.41153C23.1577 12.6302 22.06 16.354 18.9023 19.439C18.0434 20.2775 17.0368 20.9136 15.8382 21.43V20.8632C15.8382 18.2208 15.8562 15.5784 15.8211 12.937C15.803 11.5874 14.7162 10.5366 13.3455 10.4349C12.0838 10.345 10.8654 11.2653 10.6518 12.551C10.55 13.1664 10.5869 13.8106 10.5788 14.4349C10.5518 16.515 11.2331 18.3549 12.5164 19.9761C13.1806 20.8155 13.9583 21.5344 14.9541 21.9707C15.3975 22.1642 15.8211 22.2145 16.3059 21.9968C20.9272 19.9167 23.711 14.8767 22.9675 9.89601Z" fill="#00AEEF"/>
<path d="M7.23811 13.1808C7.23811 13.5559 7.23811 13.9311 7.25433 14.3063C7.35796 16.4448 8.30963 18.1201 10.0597 19.3445C10.6711 19.7723 11.3597 20.0779 12.0874 20.2442C11.3898 19.3328 10.8484 18.3122 10.4851 17.224C10.0426 15.8969 10.0814 14.5312 10.0877 13.1646C10.1012 10.6589 12.5606 9.18706 14.7667 10.3755C14.9586 10.479 15.0731 10.4592 15.2173 10.3234C15.5895 9.98238 15.8355 9.58562 15.8355 9.0638C15.8355 7.82103 15.8355 6.57856 15.8355 5.33639V4.10652L15.5651 4.21448C15.0722 4.40071 14.6063 4.58155 14.134 4.7408C13.9413 4.8186 13.7327 4.84944 13.5257 4.83077C12.2127 4.61819 10.8741 4.61637 9.56048 4.82537C9.34131 4.84534 9.12052 4.81454 8.91523 4.7354L7.24081 4.04804V5.15105C7.24081 6.4745 7.22639 7.79884 7.26514 9.12138C7.27506 9.46326 7.49044 9.82584 7.69141 10.1254C7.84821 10.3594 8.12939 10.5105 8.35288 10.6958C7.36788 11.5424 7.23721 11.8294 7.23811 13.1808ZM8.15642 7.79614C8.15102 7.28872 8.15642 6.78129 8.15642 6.25947C8.85214 6.25947 9.52534 6.19739 10.1805 6.27656C10.8753 6.36114 11.3007 6.85416 11.5323 7.6261C11.8928 6.58066 12.557 6.1866 13.5149 6.21809C13.9655 6.23518 14.4215 6.21809 14.8919 6.21809C14.8919 6.89645 14.9469 7.54153 14.8784 8.17221C14.7883 8.98193 14.125 9.53344 13.3122 9.59462C13.222 9.60181 13.1238 9.60181 13.0301 9.60091C12.4831 9.59462 11.9081 9.49835 11.5377 10.1902C11.1493 9.49115 10.5464 9.60451 9.97773 9.60001C8.87017 9.59372 8.16814 8.89826 8.15642 7.79614Z" fill="#00AEEF"/>
<path d="M9.86869 8.79839C10.0435 8.79466 10.2134 8.73937 10.357 8.6395C10.5004 8.53962 10.6111 8.39961 10.6751 8.23709C10.7391 8.07457 10.7535 7.89678 10.7164 7.72611C10.6795 7.55543 10.5927 7.39948 10.4672 7.27789C10.3416 7.1563 10.1829 7.07449 10.0109 7.04275C9.83886 7.01102 9.66133 7.03077 9.50055 7.09953C9.33978 7.16829 9.20289 7.28299 9.10727 7.4292C9.01163 7.5754 8.96143 7.74657 8.96299 7.9212C8.96678 8.15735 9.06428 8.38236 9.23407 8.54682C9.40385 8.71128 9.63213 8.80176 9.86869 8.79839ZM9.83444 7.40118C9.93745 7.40118 10.0381 7.43172 10.1237 7.48892C10.2093 7.54612 10.2759 7.62741 10.3151 7.72248C10.3544 7.81754 10.3645 7.9221 10.3442 8.0229C10.3238 8.1237 10.274 8.21618 10.2009 8.28865C10.1278 8.3611 10.0348 8.41026 9.93367 8.42988C9.83255 8.4495 9.72792 8.43871 9.63294 8.39886C9.53795 8.35902 9.45703 8.29192 9.40034 8.20608C9.34366 8.12024 9.31374 8.01952 9.31446 7.9167C9.31563 7.77972 9.37096 7.64873 9.46829 7.55221C9.56562 7.45568 9.69719 7.40141 9.83444 7.40118Z" fill="#00AEEF"/>
<path d="M13.2518 8.79839C13.4266 8.79466 13.5965 8.73937 13.74 8.6395C13.8835 8.53962 13.9942 8.39961 14.0582 8.23709C14.1221 8.07457 14.1366 7.89678 14.0995 7.72611C14.0626 7.55543 13.9758 7.39948 13.8503 7.27789C13.7247 7.1563 13.566 7.07449 13.394 7.04275C13.2219 7.01102 13.0444 7.03077 12.8836 7.09953C12.7229 7.16829 12.586 7.28299 12.4904 7.4292C12.3947 7.5754 12.3445 7.74657 12.3461 7.9212C12.3499 8.15735 12.4474 8.38236 12.6171 8.54682C12.7869 8.71128 13.0152 8.80176 13.2518 8.79839ZM13.2175 7.40118C13.3205 7.401 13.4213 7.43139 13.507 7.48848C13.5928 7.54558 13.6596 7.6268 13.6989 7.72185C13.7383 7.8169 13.7485 7.92149 13.7282 8.02235C13.708 8.1232 13.6582 8.21578 13.5851 8.28832C13.5121 8.36087 13.4191 8.41011 13.318 8.42981C13.2168 8.4495 13.1122 8.43876 13.0171 8.39895C12.9221 8.35913 12.8411 8.29203 12.7844 8.20617C12.7276 8.12031 12.6977 8.01956 12.6984 7.9167C12.6994 7.7798 12.7545 7.64881 12.8517 7.55226C12.9489 7.45571 13.0804 7.40141 13.2175 7.40118Z" fill="#00AEEF"/>
<path d="M25.2728 7.28692H26.8183V15.5928H25.2728V7.28692Z" fill="#4E5057"/>
<path d="M34.8642 15.5928L33.1645 13.1637C33.0579 13.1734 32.9508 13.1774 32.8437 13.1754H30.9665V15.5955H29.421V7.28692H32.8455C35.0327 7.28692 36.3872 8.40253 36.3872 10.2415C36.3872 11.5011 35.7456 12.425 34.6164 12.8641L36.5305 15.5928H34.8642ZM32.7725 8.59236H30.9701V11.9032H32.7725C34.1243 11.9032 34.829 11.286 34.829 10.2415C34.829 9.19695 34.1279 8.59236 32.7725 8.59236Z" fill="#4E5057"/>
<path d="M43.7202 13.1016C43.7202 14.5015 42.6622 15.7107 40.4273 15.7107C39.2512 15.7107 38.0742 15.3553 37.3019 14.7498L37.967 13.5514C38.5618 14.0499 39.4648 14.3702 40.4002 14.3702C41.506 14.3702 42.1594 13.8834 42.1594 13.1106C42.1594 12.363 41.6123 11.8762 40.3525 11.8762H39.5919V10.8236L41.4844 8.58067H37.7057V7.28692H43.3751V8.31976L41.3546 10.7165C42.9236 10.9181 43.7202 11.8555 43.7202 13.1016Z" fill="#4E5057"/>
<path d="M51.0181 13.0449C51.0181 14.5042 49.9601 15.7143 47.726 15.7143C46.5491 15.7143 45.3604 15.3589 44.5998 14.7534L45.2541 13.555C45.8597 14.0535 46.7627 14.3738 47.7017 14.3738C48.8075 14.3738 49.4608 13.887 49.4608 13.1043C49.4608 12.3216 48.9498 11.8105 47.2268 11.8105H45.218L45.6461 7.28692H50.5305V8.58067H46.9519L46.7717 10.5033H47.5674C50.0313 10.5033 51.0181 11.5703 51.0181 13.0449Z" fill="#4E5057"/>
<path d="M59.8255 10.2415C59.8255 12.0688 58.4737 13.1961 56.2838 13.1961H54.4057V15.5928H52.861V7.28692H56.2856C58.471 7.28692 59.8255 8.40253 59.8255 10.2415ZM58.2682 10.2415C58.2682 9.19785 57.5671 8.59236 56.2126 8.59236H54.4102V11.8906H56.2126C57.5671 11.8906 58.2682 11.286 58.2682 10.2415Z" fill="#00AEEF"/>
<path d="M65.1984 9.18616V10.5978C65.0849 10.5757 64.9697 10.5639 64.8541 10.5627C63.7249 10.5627 63.0112 11.2267 63.0112 12.5204V15.5928H61.526V9.25723H62.94V10.1821C63.368 9.51814 64.1404 9.18616 65.1984 9.18616Z" fill="#00AEEF"/>
<path d="M66.2374 12.425C66.2374 10.5267 67.664 9.18616 69.6124 9.18616C71.586 9.18616 73 10.5267 73 12.425C73 14.3234 71.586 15.6765 69.6124 15.6765C67.6595 15.6765 66.2374 14.3234 66.2374 12.425ZM71.5022 12.425C71.5022 11.215 70.6911 10.4457 69.6097 10.4457C68.5283 10.4457 67.7325 11.2168 67.7325 12.425C67.7325 13.6333 68.5436 14.4044 69.6097 14.4044C70.6758 14.4044 71.4977 13.6351 71.4977 12.425H71.5022Z" fill="#00AEEF"/>
</svg>
