<svg width="62" height="23" viewBox="0 0 62 23" fill="none" xmlns="http://www.w3.org/2000/svg">
<path d="M30.0153 16.1201C29.1673 16.1201 28.3993 15.9361 27.7113 15.5681C27.0313 15.1921 26.4953 14.6761 26.1033 14.0201C25.7193 13.3641 25.5273 12.6241 25.5273 11.8001C25.5273 10.9761 25.7233 10.2361 26.1153 9.58008C26.5073 8.92408 27.0433 8.41208 27.7233 8.04408C28.4113 7.66808 29.1793 7.48008 30.0273 7.48008C30.7153 7.48008 31.3433 7.60008 31.9113 7.84008C32.4793 8.08008 32.9593 8.42808 33.3513 8.88408L32.3433 9.83208C31.7353 9.17608 30.9873 8.84808 30.0993 8.84808C29.5233 8.84808 29.0073 8.97608 28.5513 9.23208C28.0953 9.48008 27.7393 9.82808 27.4833 10.2761C27.2273 10.7241 27.0993 11.2321 27.0993 11.8001C27.0993 12.3681 27.2273 12.8761 27.4833 13.3241C27.7393 13.7721 28.0953 14.1241 28.5513 14.3801C29.0073 14.6281 29.5233 14.7521 30.0993 14.7521C30.9873 14.7521 31.7353 14.4201 32.3433 13.7561L33.3513 14.7161C32.9593 15.1721 32.4753 15.5201 31.8993 15.7601C31.3313 16.0001 30.7033 16.1201 30.0153 16.1201Z" fill="#4E5057"/>
<path d="M34.7021 7.09608H36.2021V16.0001H34.7021V7.09608Z" fill="#4E5057"/>
<path d="M38.1708 9.59208H39.6708V16.0001H38.1708V9.59208ZM38.9268 8.53608C38.6548 8.53608 38.4268 8.45208 38.2428 8.28408C38.0588 8.10808 37.9668 7.89208 37.9668 7.63608C37.9668 7.38008 38.0588 7.16808 38.2428 7.00008C38.4268 6.82408 38.6548 6.73608 38.9268 6.73608C39.1988 6.73608 39.4268 6.82008 39.6108 6.98808C39.7948 7.14808 39.8868 7.35208 39.8868 7.60008C39.8868 7.86408 39.7948 8.08808 39.6108 8.27208C39.4348 8.44808 39.2068 8.53608 38.9268 8.53608Z" fill="#4E5057"/>
<path d="M47.6636 12.8321C47.6636 12.9361 47.6556 13.0841 47.6396 13.2761H42.6116C42.6996 13.7481 42.9276 14.1241 43.2956 14.4041C43.6716 14.6761 44.1356 14.8121 44.6876 14.8121C45.3916 14.8121 45.9716 14.5801 46.4276 14.1161L47.2316 15.0401C46.9436 15.3841 46.5796 15.6441 46.1396 15.8201C45.6996 15.9961 45.2036 16.0841 44.6516 16.0841C43.9476 16.0841 43.3276 15.9441 42.7916 15.6641C42.2556 15.3841 41.8396 14.9961 41.5436 14.5001C41.2556 13.9961 41.1116 13.4281 41.1116 12.7961C41.1116 12.1721 41.2516 11.6121 41.5316 11.1161C41.8196 10.6121 42.2156 10.2201 42.7196 9.94008C43.2236 9.66008 43.7916 9.52008 44.4236 9.52008C45.0476 9.52008 45.6036 9.66008 46.0916 9.94008C46.5876 10.2121 46.9716 10.6001 47.2436 11.1041C47.5236 11.6001 47.6636 12.1761 47.6636 12.8321ZM44.4236 10.7201C43.9436 10.7201 43.5356 10.8641 43.1996 11.1521C42.8716 11.4321 42.6716 11.8081 42.5996 12.2801H46.2356C46.1716 11.8161 45.9756 11.4401 45.6476 11.1521C45.3196 10.8641 44.9116 10.7201 44.4236 10.7201Z" fill="#4E5057"/>
<path d="M52.7404 9.52008C53.5484 9.52008 54.1964 9.75608 54.6844 10.2281C55.1724 10.7001 55.4164 11.4001 55.4164 12.3281V16.0001H53.9164V12.5201C53.9164 11.9601 53.7844 11.5401 53.5204 11.2601C53.2564 10.9721 52.8804 10.8281 52.3924 10.8281C51.8404 10.8281 51.4044 10.9961 51.0844 11.3321C50.7644 11.6601 50.6044 12.1361 50.6044 12.7601V16.0001H49.1044V9.59208H50.5324V10.4201C50.7804 10.1241 51.0924 9.90008 51.4684 9.74808C51.8444 9.59608 52.2684 9.52008 52.7404 9.52008Z" fill="#4E5057"/>
<path d="M61.1713 15.6521C60.9953 15.7961 60.7793 15.9041 60.5233 15.9761C60.2753 16.0481 60.0113 16.0841 59.7313 16.0841C59.0273 16.0841 58.4833 15.9001 58.0993 15.5321C57.7153 15.1641 57.5233 14.6281 57.5233 13.9241V10.8401H56.4673V9.64008H57.5233V8.17608H59.0233V9.64008H60.7393V10.8401H59.0233V13.8881C59.0233 14.2001 59.0993 14.4401 59.2513 14.6081C59.4033 14.7681 59.6233 14.8481 59.9113 14.8481C60.2473 14.8481 60.5273 14.7601 60.7513 14.5841L61.1713 15.6521Z" fill="#4E5057"/>
<path fill-rule="evenodd" clip-rule="evenodd" d="M22.2812 11.5C22.2812 17.4543 17.4543 22.2812 11.5 22.2812C5.54568 22.2812 0.71875 17.4543 0.71875 11.5C0.71875 5.54568 5.54568 0.71875 11.5 0.71875C17.4543 0.71875 22.2812 5.54568 22.2812 11.5ZM23 11.5C23 17.8513 17.8513 23 11.5 23C5.14872 23 0 17.8513 0 11.5C0 5.14872 5.14872 0 11.5 0C17.8513 0 23 5.14872 23 11.5ZM8.94516 8.99008C8.94516 7.57869 10.0893 6.43452 11.5007 6.43452C12.9121 6.43452 14.0563 7.57869 14.0563 8.99008C14.0563 10.4015 12.9121 11.5456 11.5007 11.5456C10.0893 11.5456 8.94516 10.4015 8.94516 8.99008ZM7.68573 13.2068C8.16499 12.7276 8.815 12.4583 9.49278 12.4583H13.5086C14.1864 12.4583 14.8364 12.7276 15.3157 13.2068C15.795 13.6861 16.0642 14.3361 16.0642 15.0139V16.0179C16.0642 16.3203 15.819 16.5655 15.5166 16.5655H7.48484C7.1824 16.5655 6.93722 16.3203 6.93722 16.0179V15.0139C6.93722 14.3361 7.20647 13.6861 7.68573 13.2068Z" fill="#00AEEF"/>
</svg>
